# xmcd CD database file generated by freedbAccess_ocx
#
# Track frame offsets:
#       150
#       13073
#       26573
#       38048
#       51923
#       63473
#       91373
#       104798
#       118598
#       131648
#       145148
#       157523
#       169898
#       184523
#       195473
#       206873
#
# Disc length: 2956 seconds
#
# Revision: 0
# Processed by: cddbd v1.4PL0 Copyright (c) Steve Scherf et al.
# Submitted via: CDnGo 1.95
#
DISCID=de0b8a10
DTITLE=Various Artist - Blues Sunset CD3
DYEAR=2003
DGENRE=Blues
TTITLE0=Blind Blues Darby - The Girl I Left Behind
TTITLE1=Mahalia Jackson - Move On Up A Little Higher
TTITLE2=Muddy Waters - Goin' Home
TTITLE3=John Lee Hooker - Alberta
TTITLE4=Rhythm Willie and His Gang - Breathtaking Blues
TTITLE5=B.B. King - Payin' The Cost To Be The Boss
TTITLE6=Eddie \"Mr. Cleanhead\" Vinson and His Orchestra - Kidney Stew Blues
TTITLE7=Julia Lee - Dream Lucky Blues
TTITLE8=Robert Lockwood - Take A Little Walk With Me
TTITLE9=Memphis Minnie - Fashion Plate Daddy
TTITLE10=Tampa Red - Mean Mistreater Blues
TTITLE11=Charlie Spand - Soon The Morning No.2
TTITLE12=Ella Johnsonsince I Feel For You
TTITLE13=Ray Charles - A Sentimental Blues
TTITLE14=Jay McShann and His Sextett - Bar Fly Blues
TTITLE15=Dinah Washington - Blow Top Blues
EXTD=
EXTT0=
EXTT1=
EXTT2=
EXTT3=
EXTT4=
EXTT5=
EXTT6=
EXTT7=
EXTT8=
EXTT9=
EXTT10=
EXTT11=
EXTT12=
EXTT13=
EXTT14=
EXTT15=
PLAYORDER=
